<svg width="42" height="50" viewBox="0 0 42 50" fill="none" xmlns="http://www.w3.org/2000/svg">
<path d="M30.9438 0.0250219C30.8375 -0.0937281 27.0094 0.071897 23.6781 3.68752C20.3469 7.30002 20.8594 11.4438 20.9344 11.55C21.0094 11.6563 25.6844 11.8219 28.6688 7.61877C31.6531 3.41565 31.05 0.146897 30.9438 0.0250219V0.0250219ZM41.3 36.6906C41.15 36.3906 34.0344 32.8344 34.6969 25.9969C35.3594 19.1563 39.9313 17.2813 40.0031 17.0781C40.075 16.875 38.1375 14.6094 36.0844 13.4625C34.5769 12.6539 32.9085 12.1907 31.2 12.1063C30.8625 12.0969 29.6906 11.8094 27.2813 12.4688C25.6938 12.9031 22.1156 14.3094 21.1313 14.3656C20.1438 14.4219 17.2063 12.7344 14.0469 12.2875C12.025 11.8969 9.88126 12.6969 8.34689 13.3125C6.81564 13.925 3.90314 15.6688 1.86564 20.3031C-0.171863 24.9344 0.893762 32.2719 1.65626 34.5531C2.41876 36.8313 3.60939 40.5656 5.63439 43.2906C7.43439 46.3656 9.82189 48.5 10.8188 49.225C11.8156 49.95 14.6281 50.4313 16.5781 49.4344C18.1469 48.4719 20.9781 47.9188 22.0969 47.9594C23.2125 48 25.4125 48.4406 27.6656 49.6438C29.45 50.2594 31.1375 50.0031 32.8281 49.3156C34.5188 48.625 36.9656 46.0063 39.8219 40.6969C40.9063 38.2281 41.4 36.8938 41.3 36.6906V36.6906Z" fill="white"/>
</svg>
